PathFileType	4	(X/Y/Z)	1103211_Jog01.trc	
DataRate	CameraRate	NumFrames	NumMarkers	Units	OrigDataRate	OrigDataStartFrame	OrigNumFrames
300	300	4	69	mm	300	683	258
Frame#	Time	CLAV			STRN			RSHO			LSHO			C7			T10			RBAK			RASI			LASI			RPSI			LPSI			LGTR			RGTR			LHJC			RHJC			LANK			RANK			LHEE			RHEE			LMT5			RMT5			LTOE			RTOE			RELB			RWRA			RWRB			RFIN			LELB			LWRB			LWRA			LFIN			RFP1			RFP2			RFP3			RFM1			RFM2			RFM3			RFA1			RFA2			RFA3			LFP1			LFP2			LFP3			LFM1			LFM2			LFM3			LFA1			LFA2			LFA3			LKNE			RKNE			RTP1			RTP2			RTP3			RTA1			RTA2			RTA3			LTP1			LTP2			LTP3			LTA1			LFHD			LBHD			RFHD			RBHD			LUPA			LFRA			RUPA			RFRA			
		X1	Y1	Z1	X2	Y2	Z2	X3	Y3	Z3	X4	Y4	Z4	X5	Y5	Z5	X6	Y6	Z6	X7	Y7	Z7	X8	Y8	Z8	X9	Y9	Z9	X10	Y10	Z10	X11	Y11	Z11	X12	Y12	Z12	X13	Y13	Z13	X14	Y14	Z14	X15	Y15	Z15	X16	Y16	Z16	X17	Y17	Z17	X18	Y18	Z18	X19	Y19	Z19	X20	Y20	Z20	X21	Y21	Z21	X22	Y22	Z22	X23	Y23	Z23	X24	Y24	Z24	X25	Y25	Z25	X26	Y26	Z26	X27	Y27	Z27	X28	Y28	Z28	X29	Y29	Z29	X30	Y30	Z30	X31	Y31	Z31	X32	Y32	Z32	X33	Y33	Z33	X34	Y34	Z34	X35	Y35	Z35	X36	Y36	Z36	X37	Y37	Z37	X38	Y38	Z38	X39	Y39	Z39	X40	Y40	Z40	X41	Y41	Z41	X42	Y42	Z42	X43	Y43	Z43	X44	Y44	Z44	X45	Y45	Z45	X46	Y46	Z46	X47	Y47	Z47	X48	Y48	Z48	X49	Y49	Z49	X50	Y50	Z50	X51	Y51	Z51	X52	Y52	Z52	X53	Y53	Z53	X54	Y54	Z54	X55	Y55	Z55	X56	Y56	Z56	X57	Y57	Z57	X58	Y58	Z58	X59	Y59	Z59	X60	Y60	Z60	X61	Y61	Z61	X62	Y62	Z62	X63	Y63	Z63	X64	Y64	Z64	X65	Y65	Z65	X66	Y66	Z66	X67	Y67	Z67	X68	Y68	Z68	X69	Y69	Z69	

65	0.21333	795.05273	1292.46155	0.74599	822.16302	1118.47229	-9.79713	715.83276	1326.37988	163.67191	734.59033	1351.25977	-173.56203	655.41449	1366.73120	-4.37425	587.26855	1083.15588	-31.22070	589.89038	1275.26672	82.99541	718.36426	884.85205	81.30225	729.84650	872.80267	-142.14326	543.23035	891.55402	8.71660	549.94971	888.58984	-89.60670	665.28113	790.13556	-201.71901	656.05768	798.00232	133.62399	653.15344	797.70313	-109.74223	641.55560	806.42426	48.58025	400.80017	307.23959	-176.63963	566.22784	87.84525	16.09090	356.88000	362.54117	-122.37874	492.75385	67.15263	-33.71815	369.76489	189.92799	-221.59639	672.52631	41.42325	60.68611	410.12244	147.25587	-156.27422	721.84174	59.85421	-7.28342	571.22565	1079.33984	291.50204	725.04260	919.25629	194.87524	708.18140	879.66388	255.55548	793.46942	883.23322	211.71118	589.22699	1130.73132	-320.83514	737.07428	930.37048	-260.93896	755.27130	981.50647	-214.80013	825.14679	931.50317	-225.10692	674.48920	701.74139	134.90868	703.05017	613.19904	122.95842	726.73914	525.98553	103.88590	722.11786	770.33185	130.67165	757.07245	679.67004	128.45026	785.19263	593.02808	110.44626	780.44849	743.63239	83.98576	809.31958	651.57819	73.82243	819.83087	564.24805	51.72861	685.63879	690.49445	-205.99663	724.79834	587.29663	-198.82878	745.09296	513.21814	-188.83290	727.39227	756.15448	-191.24971	763.93970	661.03821	-193.55559	795.45544	574.38422	-184.01070	790.95038	721.75763	-136.08052	821.03333	629.64496	-118.97017	837.05609	539.21686	-113.34724	749.77112	436.49365	-178.43199	746.23004	426.37827	82.45174	701.10095	326.97342	85.05045	651.07013	238.24438	62.21480	612.30817	166.33421	37.94164	765.59601	342.63135	23.00125	725.92511	271.50836	6.71654	679.70129	200.31245	-7.10844	657.87616	386.77039	-194.67729	584.35767	362.20490	-191.75716	503.96594	335.01416	-183.91679	725.06488	353.94907	-126.21504	802.32080	1563.81506	-70.95073	687.04828	1543.20923	-87.53310	796.54913	1559.34595	76.02652	656.93500	1542.74268	77.34858	694.25726	1263.21362	-253.98997	689.14221	1005.79565	-297.79236	607.18878	1153.82031	261.34119	621.86176	998.10632	294.20932	
66	0.21667	803.74933	1292.89185	0.45566	830.70166	1118.86218	-10.11050	725.66003	1327.18909	163.75690	742.32855	1351.75281	-173.45445	664.13190	1367.23975	-3.91321	595.79987	1083.71863	-30.55121	599.18903	1275.76050	84.00069	726.44110	885.43665	81.81833	738.25415	873.46198	-141.74504	551.41241	892.14337	8.98579	558.28729	889.35968	-89.48720	674.47601	791.16040	-201.48372	663.13849	797.86035	133.72470	661.48737	798.37701	-109.41997	649.66010	807.04126	48.88866	416.79590	304.33954	-175.89919	566.49963	88.29868	16.05670	371.39355	358.64359	-121.85970	492.87317	67.76537	-33.81197	388.72998	186.33186	-220.83830	672.51825	41.50212	60.67165	429.92932	144.78113	-155.33492	721.91772	59.84417	-7.24521	583.74377	1078.86719	292.38992	738.88123	921.90033	193.59070	723.24402	881.73438	254.24503	807.98950	886.71124	209.43204	594.96667	1132.76196	-320.74023	741.41968	930.92487	-262.42700	760.43750	981.85455	-216.28139	829.92780	931.28290	-227.06413	680.51288	701.40796	134.93633	707.96198	612.51965	122.95029	730.64935	525.04645	103.80211	728.91235	769.52936	131.09216	762.72882	678.18616	128.83614	789.86615	591.23236	110.80316	787.44830	741.93396	84.90747	815.08368	649.52289	74.60877	824.50134	562.17218	52.18802	696.11469	691.72864	-205.72627	737.01526	589.00854	-198.57487	758.46704	515.21802	-188.51854	736.93402	757.79218	-190.97612	775.03162	663.34094	-193.28264	807.89514	577.10181	-183.54881	800.47906	724.22333	-135.20351	831.93469	632.70551	-118.09209	849.42029	542.54822	-112.48894	764.15106	438.52695	-177.69521	749.10040	425.26682	82.50493	703.23816	326.29544	85.02002	652.49915	238.05342	62.06306	613.14307	166.46136	37.84988	767.84375	341.45114	23.03085	727.58215	270.66663	6.66478	680.82202	199.88597	-7.12047	673.00580	387.56613	-193.85875	599.78131	362.04663	-190.92088	519.75171	333.71121	-183.18883	740.48706	355.79626	-125.39980	811.09680	1564.26257	-70.96867	695.77454	1543.78284	-87.44740	805.55450	1559.78894	76.01879	665.91406	1543.30664	77.59923	701.13879	1264.36206	-253.91826	693.87061	1006.88019	-298.81537	619.04425	1153.59363	262.11212	635.51862	998.49762	294.26202	
67	0.22000	812.44690	1293.45630	0.15187	839.26886	1119.38965	-10.41743	735.48383	1328.16431	163.81056	750.04089	1352.36719	-173.34465	672.86108	1367.86548	-3.46451	604.36902	1084.38220	-29.86121	608.51416	1276.37769	85.00161	734.56598	886.13751	82.33019	746.70081	874.24457	-141.33836	559.63971	892.85193	9.25888	566.66229	890.24719	-89.36513	683.69177	792.32758	-201.25258	670.23529	797.83032	133.80750	669.86261	799.17224	-109.09492	657.81201	807.77521	49.20020	432.83203	301.27322	-175.09801	566.78540	88.79764	16.02214	385.95044	354.48190	-121.24086	493.01208	68.44840	-33.89967	407.84265	182.62590	-220.02907	672.51862	41.57343	60.65160	449.93158	142.23505	-154.37910	722.01044	59.82253	-7.21080	596.20752	1078.63733	293.22577	752.67914	924.92505	192.23683	738.24438	884.15277	252.79919	822.45233	890.60016	207.09976	600.68518	1134.97583	-320.67981	745.84875	931.85443	-263.82373	765.60681	982.60168	-217.69328	834.75989	931.55353	-228.87724	686.52887	701.19708	134.94044	712.82916	611.97107	122.90539	734.47455	524.24792	103.66985	735.70886	768.82770	131.47383	768.35547	676.81702	129.16057	794.46985	589.55536	111.08622	794.40863	740.33118	85.75532	820.77551	647.56665	75.31300	829.05585	560.20776	52.55646	706.57135	693.12000	-205.46001	749.15265	590.89392	-198.30641	771.73486	517.40308	-188.18245	746.48041	759.57336	-190.70442	786.06299	665.79895	-192.99925	820.23071	579.98608	-183.07152	809.96985	726.82178	-134.33400	842.77692	635.90723	-117.23561	861.68958	546.03479	-111.64101	778.40344	440.72635	-176.93111	751.84558	424.29999	82.49875	705.26855	325.74216	84.94790	653.86273	237.96315	61.88500	613.95435	166.66701	37.74147	769.95972	340.41245	22.98840	729.14264	269.95670	6.56325	681.88953	199.56721	-7.16478	688.02954	388.45605	-193.00926	615.13727	361.90707	-190.04283	535.51703	332.34610	-182.41682	755.83386	357.79843	-124.56526	819.87317	1564.82422	-71.00838	704.49707	1544.49121	-87.38988	814.55841	1560.34924	75.98936	674.89307	1544.00098	77.82230	707.98254	1265.67944	-253.85213	698.63715	1008.28247	-299.79462	630.87860	1153.59229	262.85349	649.10339	999.16394	294.23865	
68	0.22333	821.14703	1294.15283	-0.16556	847.86639	1120.05273	-10.72011	745.30481	1329.29871	163.83386	757.72925	1353.10217	-173.23201	681.60382	1368.60681	-3.02795	612.97693	1085.14514	-29.15106	617.86475	1277.11743	85.99592	742.74030	886.94727	82.83537	755.18835	875.14423	-140.92384	567.91406	893.67950	9.53278	575.07672	891.25018	-89.24193	692.92792	793.63281	-201.02623	677.35620	797.91779	133.87350	678.27863	800.08478	-108.76942	666.01050	808.62146	49.51259	448.91394	298.04367	-174.23717	567.08868	89.34778	15.99033	400.56201	350.05942	-120.52403	493.17426	69.21100	-33.97673	427.10388	178.82170	-219.17079	672.52789	41.63652	60.62759	470.12244	139.63013	-153.40660	722.12152	59.78655	-7.17874	608.61292	1078.64197	294.01147	766.42267	928.31580	190.82002	753.16705	886.90570	251.22461	836.84216	894.88312	204.72395	606.38782	1137.36768	-320.64551	750.37073	933.14178	-265.12982	770.79047	983.72906	-219.03200	839.65448	932.28955	-230.54802	692.55005	701.11554	134.92357	717.66644	611.56317	122.82752	738.22888	523.60144	103.49590	742.51752	768.23505	131.81445	773.96655	675.57587	129.42148	799.01709	588.01093	111.29423	801.33215	738.83856	86.51876	826.40118	645.72424	75.92578	833.50342	558.36707	52.83188	717.00592	694.66260	-205.19844	761.20709	592.94507	-198.02364	784.89111	519.76447	-187.82555	756.03046	761.49219	-190.43474	797.03168	668.40399	-192.70451	832.45874	583.02728	-182.57835	819.42407	729.54590	-133.47356	853.55695	639.24103	-116.39827	873.85815	549.66571	-110.80168	792.51929	443.08090	-176.14195	754.47546	423.48770	82.43772	707.20117	325.32159	84.83858	655.16815	237.98064	61.68539	614.74731	166.95793	37.62000	771.95496	339.52246	22.88028	730.61652	269.38571	6.41777	682.91132	199.36267	-7.23709	702.94000	389.42996	-192.13206	630.42163	361.77811	-189.12791	551.26190	330.91479	-181.60277	771.09583	359.94656	-123.71175	828.65021	1565.49915	-71.07021	713.21655	1545.32910	-87.35866	823.56104	1561.02661	75.93799	683.87225	1544.82251	78.01766	714.79138	1267.16248	-253.78874	703.45422	1009.99310	-300.72504	642.68695	1153.80957	263.56525	662.61011	1000.09509	294.14221	
